<?xml version="1.0" encoding="UTF-8" standalone="no"?>
<svg
   xmlns:dc="http://purl.org/dc/elements/1.1/"
   xmlns:cc="http://creativecommons.org/ns#"
   xmlns:rdf="http://www.w3.org/1999/02/22-rdf-syntax-ns#"
   xmlns:svg="http://www.w3.org/2000/svg"
   xmlns="http://www.w3.org/2000/svg"
   viewBox="0 0 1600 1066.6667"
   height="1066.6667"
   width="1600"
   xml:space="preserve"
   id="svg2"
   version="1.1"><metadata
     id="metadata8"><rdf:RDF><cc:Work
         rdf:about=""><dc:format>image/svg+xml</dc:format><dc:type
           rdf:resource="http://purl.org/dc/dcmitype/StillImage" /></cc:Work></rdf:RDF></metadata><defs
     id="defs6" /><g
     transform="matrix(1.3333333,0,0,-1.3333333,0,1066.6667)"
     id="g10"><g
       transform="scale(0.1)"
       id="g12"><path
         id="path14"
         style="fill:#fdfdfd;fill-opacity:1;fill-rule:nonzero;stroke:none"
         d="M 12000,0 H 5353.89 C 5309.21,1.74219 5264.82,3.51172 5220.35,5.33984 5026.51,13.3203 4829.55,22.3516 4639.08,31.0781 4369.47,43.4492 4090.68,56.2305 3815.96,66.25 3281.76,85.7383 2716.46,95.3906 2147.32,95.3906 1418.24,95.3906 682.934,79.5313 0,48.1992 v -19.707 c 682.922,31.3984 1418.08,47.2773 2147.35,47.2773 567.97,0 1132.53,-9.6406 1665.64,-29.0898 C 4087.34,36.6719 4365.93,23.9023 4635.36,11.5508 4718.88,7.71875 4803.65,3.83203 4888.86,0 H 0 V 8000 H 12000 V 7729.66 C 7953.94,7741.07 3705.05,7771.18 0,7814.65 v -19.63 c 3705.12,-43.47 7953.95,-73.56 12000,-84.98 v -299.09 c -612.5,11.83 -1266.4,23.76 -1901.2,35.35 -717.08,13.09 -1458.6,26.63 -2137.2,39.95 -256.02,5.02 -517.85,10.15 -779.8,10.15 -128.92,0 -257.89,-1.24 -386.17,-4.36 -192.86,-4.68 -388.11,-13.7 -576.95,-22.42 -166.94,-7.71 -339.55,-15.69 -509.57,-20.62 -180.03,-5.21 -361.35,-7.15 -542.55,-7.15 -268.34,0 -536.35,4.25 -798.97,8.43 -728.16,11.58 -1506.23,23.35 -2258.69,34.73 -701.08,10.6 -1424.459,21.54 -2108.9,32.35 v -19.63 c 684.113,-10.8 1406.99,-21.73 2107.67,-32.34 752.44,-11.37 1530.5,-23.14 2258.62,-34.72 263.02,-4.19 531.38,-8.45 800.33,-8.45 181.84,0 363.95,1.95 544.85,7.19 170.71,4.96 343.68,12.94 510.96,20.67 188.39,8.71 383.21,17.7 575.18,22.36 127.59,3.1 255.91,4.34 384.31,4.34 261.17,0 522.55,-5.13 778.07,-10.14 678.66,-13.31 1420.19,-26.85 2137.31,-39.94 635.3,-11.6 1289.8,-23.56 1902.7,-35.39 V 7054.68 C 7953.78,7066.1 3704.89,7096.2 0,7139.67 v -19.63 c 3704.96,-43.47 7953.79,-73.56 12000,-84.98 v -382.7 c -436.4,-8.1 -898.1,-11.16 -1370.5,-11.16 -640.66,0 -1300.86,5.63 -1943.01,11.94 l -2068.81,20.33 c -1200.88,11.81 -2442.64,24.01 -3662.06,56.85 -81.53,2.19 -164.12,4.47 -247.56,6.79 -513.36,14.22 -1064.27,29.48 -1608,29.48 -375.048,0 -746.654,-7.26 -1100.06,-27.14 v -19.75 c 353.066,19.98 724.672,27.27 1100.03,27.27 542.68,0 1093.06,-15.25 1605.78,-29.45 83.46,-2.31 166.06,-4.6 247.63,-6.8 1220.11,-32.85 2462.22,-45.06 3663.53,-56.86 l 2068.72,-20.33 c 642.5,-6.32 1302.74,-11.95 1943.91,-11.95 472.1,0 934,3.05 1370.4,11.14 v -321.84 c -666.4,12.51 -1378.8,25.16 -2069.78,37.43 -758.96,13.47 -1543.75,27.4 -2264.95,41.1 -375.09,7.13 -762.99,14.51 -1144.76,19.1 -566.23,6.8 -1153.08,7.77 -1729.87,7.77 -114.37,0 -228.41,-0.04 -341.74,-0.07 -114.64,-0.04 -229.41,-0.08 -344.58,-0.08 -1370.65,0 -2774.05,5.36 -4104.32,80.01 v -19.75 c 1331.19,-74.54 2733.9,-79.88 4104.22,-79.88 115.07,0 230.16,0.03 344.71,0.07 114.49,0.04 229.52,0.08 345.07,0.08 575.38,0 1160.91,-0.98 1725.52,-7.77 381.51,-4.59 769.25,-11.95 1144.21,-19.08 721.24,-13.7 1506.04,-27.64 2265.04,-41.11 691.53,-12.28 1404.43,-24.94 2071.23,-37.45 v -164.38 c -460.4,-39.2 -992.6,-49.21 -1492.8,-49.21 -290.4,0 -570.17,3.38 -818.6,6.38 -3179.73,38.41 -6485.47,40.22 -9688.6,41.31 v -19.62 c 3202.89,-1.09 6508.36,-2.9 9687.64,-41.31 248.73,-3 528.66,-6.38 819.56,-6.38 499.4,0 1031.1,9.96 1492.8,48.92 V 5590.8 c -985.2,48.56 -2021.31,59.71 -3056.17,59.71 -443.35,0 -886.55,-2.04 -1325.35,-4.07 -439.75,-2.03 -861.48,-3.98 -1277.24,-3.98 -147.38,0 -294.03,0.25 -440.44,0.82 -573.14,2.24 -1171.66,9.74 -1750.48,16.98 -721.55,9.04 -1455.17,18.22 -2184.04,18.22 -663.83,0 -1323.846,-7.63 -1966.28,-29.93 v -19.67 c 642.398,22.35 1302.02,29.98 1966.22,29.98 728.3,0 1461.96,-9.19 2183.08,-18.21 578.99,-7.25 1177.69,-14.75 1751.18,-16.99 143.53,-0.56 288.96,-0.8 435.51,-0.8 425.01,0 859.32,2 1282.87,3.96 438.74,2.02 881.57,4.07 1324.83,4.07 1035.22,0 2071.61,-11.17 3056.31,-59.82 v -365.06 c -1715.3,8.98 -3444.35,24.69 -4887.4,44.45 -481.23,6.59 -967.66,13.87 -1438.07,20.93 l -1189.59,17.82 c -506.77,7.59 -1030.79,15.44 -1546.15,23.64 -581.67,9.24 -1214.11,19.1 -1837.93,28.82 -374.344,5.84 -745.571,11.62 -1100.86,17.2 v -19.63 c 354.898,-5.57 725.703,-11.35 1099.59,-17.18 623.81,-9.72 1256.24,-19.57 1837.91,-28.82 515.39,-8.2 1039.43,-16.05 1546.46,-23.65 l 1189.34,-17.82 c 470.44,-7.04 956.91,-14.34 1438.19,-20.93 1443.46,-19.76 3172.81,-35.47 4888.51,-44.45 v -331.42 c -980.8,-12.25 -2068.23,-25.21 -3181.19,-25.21 -1204.66,0 -2439.09,15.2 -3598.46,62.92 -193.84,7.98 -390.8,17.01 -581.27,25.75 -269.61,12.36 -548.4,25.14 -823.12,35.16 -534.12,19.49 -1099.52,29.14 -1668.57,29.14 -729.16,0 -1464.378,-15.85 -2147.39,-47.19 v -19.71 c 682.922,31.4 1418.11,47.28 2147.39,47.28 567.97,0 1132.49,-9.63 1665.6,-29.08 274.35,-10.01 552.94,-22.79 822.37,-35.14 190.56,-8.74 387.62,-17.77 581.64,-25.76 1160.9,-47.79 2396.09,-63 3601.86,-62.99 1112.8,0 2200.54,12.95 3181.14,25.2 v -346.52 c -1200.8,12.58 -2494.84,14.95 -3724,14.95 -383.02,0 -759.83,-0.23 -1125.47,-0.45 l -2027.7,-1.23 c -854.37,-0.53 -1745.87,-1.05 -2637.37,-1.57 C 1646.68,4500.03 807.855,4499.54 0,4499.05 v -19.63 c 807.902,0.49 1646.68,0.99 2485.51,1.48 891.5,0.52 1782.99,1.04 2637.37,1.57 l 2027.72,1.23 c 365.29,0.22 741.54,0.45 1124.18,0.45 1229.54,0 2524.22,-2.36 3725.22,-14.95 v -360.59 c -132.9,12.92 -288.9,19.56 -442,19.56 -175.2,0 -346.7,-8.72 -475.1,-26.69 -72.9,-10.22 -145.5,-23.45 -215.6,-36.24 -144.8,-26.4 -294.4,-53.69 -448.4,-54.11 -1.3,0 -2.6,-0.01 -3.9,-0.01 -145,0 -281,22.71 -424.89,46.74 -93.43,15.6 -190.05,31.73 -288.48,40.8 -85.99,7.91 -173.37,10.45 -260.63,10.45 -79.34,0 -158.58,-2.1 -236.56,-4.16 l -12.78,-0.35 c -815.12,-21.51 -1638.27,-28.16 -2456.98,-28.16 -672.2,0 -1341.46,4.48 -2000.46,8.9 -793.9,5.32 -1638.9,10.73 -2456.07,15.96 -756.47,4.84 -1536.775,9.83 -2278.15,14.77 v -19.63 c 741.211,-4.93 1521.35,-9.92 2277.62,-14.76 817.18,-5.23 1662.16,-10.64 2456.05,-15.96 659.22,-4.42 1328.42,-8.9 2000.9,-8.9 819.26,0 1643.3,6.65 2459.25,28.19 l 12.79,0.34 c 77.29,2.05 155.81,4.13 234.2,4.13 85.27,0 170.37,-2.46 253.43,-10.11 95.62,-8.8 190.87,-24.7 282.99,-40.09 140.67,-23.49 286.17,-47.78 437.97,-47.78 1.3,0 2.6,0 3.9,0.01 161.1,0.44 314.1,28.35 462.1,55.33 69.5,12.67 141.3,25.77 212.7,35.76 125.7,17.6 293.4,26.13 464.9,26.13 153.2,0 309.4,-6.81 441.2,-20.05 v -286.95 c -185,-12.51 -377.2,-17.26 -573,-17.26 -315.3,0 -639.9,12.33 -958.4,24.43 -321.3,12.19 -647.42,24.58 -966.12,24.58 -387.3,0 -763.61,-18.3 -1106.58,-77.46 -35.88,-6.19 -72.21,-12.92 -107.34,-19.45 -132.83,-24.64 -270.19,-50.12 -411.36,-50.95 -2.4,-0.01 -4.79,-0.02 -7.18,-0.02 -150.18,0 -296.45,27.52 -437.79,54.14 -55.25,10.42 -112.38,21.19 -169.29,30.24 -263.2,41.89 -541.96,50.46 -811.54,58.74 -351.04,10.78 -709.53,21.79 -1068.47,21.79 -211.35,0 -422.9,-3.82 -633.07,-13.75 -156.77,-7.41 -315.14,-18.36 -468.3,-28.95 -150.59,-10.41 -306.31,-21.17 -460.01,-28.53 -339.34,-16.24 -686.35,-16.77 -1021.93,-17.27 -466.36,-0.7 -969.84,-1.4 -1473.32,-2.1 -450.991,-0.63 -901.987,-1.25 -1326.3,-1.88 v -19.62 c 424.332,0.62 875.395,1.25 1326.42,1.88 503.48,0.7 1006.96,1.4 1473.32,2.09 336.51,0.51 684.47,1.04 1025.7,17.37 154.55,7.4 310.69,18.19 461.7,28.64 152.73,10.55 310.66,21.47 466.56,28.84 208.75,9.86 418.96,13.66 629.25,13.66 357.78,0 715.66,-10.99 1065.95,-21.75 267.09,-8.2 543.29,-16.69 801.7,-57.82 55.89,-8.9 112.51,-19.57 167.28,-29.88 144.74,-27.28 294.31,-55.46 452.01,-55.46 2.59,0 5.21,0.01 7.8,0.02 148.22,0.88 288.95,26.98 425.03,52.22 34.91,6.48 71.01,13.18 106.44,19.29 337.87,58.28 709.9,76.33 1093.56,76.33 317.27,0 642.48,-12.35 962.78,-24.51 319.4,-12.13 644.8,-24.49 961.5,-24.49 195.4,0 387.6,4.71 573,17.09 v -391.42 c -460.4,-39.2 -992.7,-49.21 -1492.9,-49.21 -290.4,0 -570.07,3.38 -818.5,6.38 C 6508.87,3386.1 3203.13,3387.9 0,3388.99 v -19.62 c 3202.89,-1.09 6508.36,-2.9 9687.64,-41.3 248.73,-3.01 528.66,-6.39 819.56,-6.39 499.4,0 1031.1,9.96 1492.8,48.92 v -509.28 c -612.5,11.82 -1266.4,23.76 -1901.2,35.35 -717.08,13.1 -1458.6,26.63 -2137.2,39.94 -256.02,5.03 -517.83,10.16 -779.78,10.16 -128.92,0 -257.91,-1.24 -386.19,-4.36 -192.89,-4.69 -388.15,-13.71 -577.02,-22.43 -166.91,-7.71 -339.5,-15.68 -509.5,-20.6 -180.06,-5.23 -361.4,-7.17 -542.62,-7.17 -268.31,0 -536.31,4.26 -798.9,8.43 -728.16,11.59 -1506.23,23.35 -2258.69,34.74 -701.08,10.6 -1424.459,21.54 -2108.9,32.35 v -19.64 c 684.113,-10.79 1406.99,-21.72 2107.67,-32.33 752.44,-11.38 1530.5,-23.15 2258.62,-34.72 263.02,-4.19 531.31,-8.45 800.26,-8.45 181.84,0 364.02,1.95 544.92,7.2 170.69,4.95 343.64,12.94 510.89,20.66 188.42,8.7 383.26,17.69 575.25,22.36 127.57,3.1 255.83,4.34 384.2,4.34 261.2,0 522.64,-5.13 778.18,-10.14 678.66,-13.32 1420.19,-26.85 2137.31,-39.95 635.3,-11.59 1289.8,-23.55 1902.7,-35.38 v -274.3 c -351.3,19.43 -837.3,38.03 -1165.3,44.17 -85.7,1.6 -171.4,2.33 -257.4,2.33 -449.3,0 -901.04,-19.96 -1340.08,-39.37 -206.09,-9.12 -419.19,-18.54 -628.78,-25.75 -509.84,-17.53 -1025.11,-22.88 -1537.5,-22.88 -405.41,0 -809.03,3.35 -1206.63,6.65 l -880.3,7.3 c -823.91,6.83 -1669.77,13.66 -2515.64,20.49 -829.7,6.7 -1659.386,13.39 -2468.37,20.1 v -19.63 c 808.75,-6.7 1638.25,-13.39 2467.71,-20.09 845.86,-6.83 1691.72,-13.66 2515.63,-20.49 l 880.29,-7.3 c 397.93,-3.3 801.77,-6.65 1207.57,-6.65 513.04,0 1029.18,5.35 1540.03,22.93 209.99,7.22 423.29,16.65 629.58,25.77 438.16,19.38 888.79,39.31 1336.59,39.31 85.4,0 170.7,-0.72 255.7,-2.32 328.6,-6.15 816.2,-24.84 1166.9,-44.31 v -394.29 c -612.5,11.82 -1266.4,23.77 -1901.2,35.35 -717.08,13.1 -1458.6,26.63 -2137.2,39.95 -255.99,5.02 -517.82,10.15 -779.72,10.15 -128.96,0 -257.95,-1.24 -386.25,-4.36 -192.86,-4.68 -388.12,-13.7 -576.96,-22.42 -166.94,-7.71 -339.54,-15.68 -509.56,-20.61 -179.98,-5.22 -361.22,-7.16 -542.37,-7.16 -268.39,0 -536.48,4.26 -799.15,8.44 -728.16,11.57 -1506.23,23.34 -2258.69,34.72 -701.08,10.61 -1424.459,21.55 -2108.9,32.36 v -19.63 c 684.113,-10.81 1406.99,-21.74 2107.67,-32.34 752.44,-11.38 1530.5,-23.15 2258.62,-34.72 263.05,-4.19 531.37,-8.46 800.34,-8.46 181.82,0 363.97,1.95 544.84,7.2 170.71,4.95 343.68,12.94 510.95,20.66 188.39,8.71 383.21,17.71 575.19,22.38 127.52,3.09 255.75,4.33 384.09,4.33 261.21,0 522.7,-5.13 778.29,-10.15 678.66,-13.31 1420.19,-26.85 2137.31,-39.94 635.3,-11.6 1289.8,-23.55 1902.7,-35.38 v -368.7 c -436.4,-8.1 -898.1,-11.16 -1370.5,-11.16 -640.66,0 -1300.86,5.63 -1943.01,11.94 l -2068.81,20.33 c -1200.88,11.81 -2442.64,24.01 -3662.06,56.84 -81.53,2.2 -164.12,4.48 -247.56,6.8 -513.36,14.22 -1064.29,29.48 -1608.02,29.48 -375.048,0 -746.634,-7.26 -1100.04,-27.14 v -19.75 c 353.066,19.98 724.602,27.27 1099.96,27.27 542.68,0 1093.13,-15.25 1605.85,-29.45 83.46,-2.32 166.06,-4.6 247.63,-6.8 1220.11,-32.85 2462.22,-45.06 3663.53,-56.87 l 2068.72,-20.33 c 642.5,-6.32 1302.74,-11.94 1943.91,-11.94 472.1,0 934,3.05 1370.4,11.14 v -321.84 c -666.4,12.51 -1378.8,25.16 -2069.78,37.43 -758.96,13.46 -1543.75,27.4 -2264.95,41.1 -375.09,7.13 -762.99,14.5 -1144.76,19.09 -565.32,6.81 -1151.26,7.78 -1727.15,7.78 -115.3,0 -230.21,-0.04 -344.46,-0.08 -114.27,-0.04 -228.74,-0.08 -343.53,-0.08 -1371.01,0 -2774.74,5.35 -4105.37,80.02 v -19.75 c 1330.64,-74.51 2732.94,-79.89 4102.73,-79.89 115.63,0 231.09,0.04 346.2,0.08 114.53,0.04 229.67,0.08 345.26,0.08 575.35,0 1160.77,-0.98 1725.33,-7.78 381.51,-4.58 769.25,-11.95 1144.21,-19.07 721.24,-13.71 1506.04,-27.64 2265.04,-41.11 691.53,-12.28 1404.43,-24.94 2071.23,-37.46 v -164.37 c -460.4,-39.2 -992.6,-49.21 -1492.7,-49.21 -290.5,0 -570.23,3.38 -818.7,6.38 -3179.73,38.41 -6485.47,40.22 -9688.6,41.32 v -19.63 c 3202.89,-1.09 6508.36,-2.9 9687.64,-41.31 248.73,-3.01 528.66,-6.39 819.56,-6.39 499.4,0 1031.1,9.97 1492.8,48.93 V 703.449 c -985.2,48.571 -2021.14,59.723 -3056,59.723 -443.35,0 -886.72,-2.051 -1325.52,-4.082 -439.75,-2.02 -861.43,-3.969 -1277.19,-3.969 -147.38,0 -294.08,0.238 -440.49,0.82 -573.14,2.25 -1171.66,9.739 -1750.48,16.981 -721.55,9.027 -1455.26,18.219 -2184.14,18.219 -663.82,0 -1323.746,-7.629 -1966.18,-29.93 v -19.68 c 642.398,22.348 1302.07,29.989 1966.26,29.989 728.31,0 1461.92,-9.192 2183.04,-18.219 578.99,-7.242 1177.69,-14.731 1751.18,-16.981 143.6,-0.558 289.06,-0.8 435.69,-0.8 424.94,0 859.21,2 1282.69,3.949 438.74,2.031 881.76,4.082 1325.03,4.082 1035.21,0 2071.41,-11.172 3056.11,-59.809 V 318.66 c -1715.3,8.992 -3444.35,24.699 -4887.4,44.449 -481.23,6.602 -967.66,13.879 -1438.07,20.93 l -1189.59,17.832 c -506.77,7.578 -1030.79,15.438 -1546.15,23.641 -581.67,9.25 -1214.11,19.097 -1837.93,28.82 C 726.516,460.172 355.289,465.949 0,471.52 V 451.898 C 354.898,446.332 725.703,440.551 1099.59,434.719 1723.4,425 2355.83,415.152 2937.5,405.891 3452.89,397.691 3976.93,389.84 4483.96,382.25 L 5673.3,364.43 c 470.44,-7.051 956.91,-14.34 1438.19,-20.918 1443.46,-19.77 3172.81,-35.481 4888.51,-44.473 V 0" /><path
         id="path16"
         style="fill:#b2dde6;fill-opacity:1;fill-rule:nonzero;stroke:none"
         d="m 12000,7391.31 c -612.9,11.83 -1267.4,23.79 -1902.7,35.39 -717.12,13.09 -1458.65,26.63 -2137.31,39.94 -255.52,5.01 -516.9,10.14 -778.07,10.14 -128.4,0 -256.72,-1.24 -384.31,-4.34 -191.97,-4.66 -386.79,-13.65 -575.18,-22.36 -167.28,-7.73 -340.25,-15.71 -510.96,-20.67 -180.9,-5.24 -363.01,-7.19 -544.85,-7.19 -268.95,0 -537.31,4.26 -800.33,8.45 -728.12,11.58 -1506.18,23.35 -2258.62,34.72 C 1406.99,7476 684.113,7486.93 0,7497.73 v 19.63 c 684.441,-10.81 1407.82,-21.75 2108.9,-32.35 752.46,-11.38 1530.53,-23.15 2258.69,-34.73 262.62,-4.18 530.63,-8.43 798.97,-8.43 181.2,0 362.52,1.94 542.55,7.15 170.02,4.93 342.63,12.91 509.57,20.62 188.84,8.72 384.09,17.74 576.95,22.42 128.28,3.12 257.25,4.36 386.17,4.36 261.95,0 523.78,-5.13 779.8,-10.15 678.6,-13.32 1420.12,-26.86 2137.2,-39.95 634.8,-11.59 1288.7,-23.52 1901.2,-35.35 v -19.64" /><path
         id="path18"
         style="fill:#b2dde6;fill-opacity:1;fill-rule:nonzero;stroke:none"
         d="m 12000,2841.68 c -612.9,11.83 -1267.4,23.79 -1902.7,35.38 -717.12,13.1 -1458.65,26.63 -2137.31,39.95 -255.54,5.01 -516.98,10.14 -778.18,10.14 -128.37,0 -256.63,-1.24 -384.2,-4.34 -191.99,-4.67 -386.83,-13.66 -575.25,-22.36 -167.25,-7.72 -340.2,-15.71 -510.89,-20.66 -180.9,-5.25 -363.08,-7.2 -544.92,-7.2 -268.95,0 -537.24,4.26 -800.26,8.45 -728.12,11.57 -1506.18,23.34 -2258.62,34.72 C 1406.99,2926.37 684.113,2937.3 0,2948.09 v 19.64 c 684.441,-10.81 1407.82,-21.75 2108.9,-32.35 752.46,-11.39 1530.53,-23.15 2258.69,-34.74 262.59,-4.17 530.59,-8.43 798.9,-8.43 181.22,0 362.56,1.94 542.62,7.17 170,4.92 342.59,12.89 509.5,20.6 188.87,8.72 384.13,17.74 577.02,22.43 128.28,3.12 257.27,4.36 386.19,4.36 261.95,0 523.76,-5.13 779.78,-10.16 678.6,-13.31 1420.12,-26.84 2137.2,-39.94 634.8,-11.59 1288.7,-23.53 1901.2,-35.35 v -19.64" /><path
         id="path20"
         style="fill:#b2dde6;fill-opacity:1;fill-rule:nonzero;stroke:none"
         d="m 12000,2133.72 c -612.9,11.83 -1267.4,23.78 -1902.7,35.38 -717.12,13.09 -1458.65,26.63 -2137.31,39.94 -255.59,5.02 -517.08,10.15 -778.29,10.15 -128.34,0 -256.57,-1.24 -384.09,-4.33 -191.98,-4.67 -386.8,-13.67 -575.19,-22.38 -167.27,-7.72 -340.24,-15.71 -510.95,-20.66 -180.87,-5.25 -363.02,-7.2 -544.84,-7.2 -268.97,0 -537.29,4.27 -800.34,8.46 -728.12,11.57 -1506.18,23.34 -2258.62,34.72 C 1406.99,2218.4 684.113,2229.33 0,2240.14 v 19.63 c 684.441,-10.81 1407.82,-21.75 2108.9,-32.36 752.46,-11.38 1530.53,-23.15 2258.69,-34.72 262.67,-4.18 530.76,-8.44 799.15,-8.44 181.15,0 362.39,1.94 542.37,7.16 170.02,4.93 342.62,12.9 509.56,20.61 188.84,8.72 384.1,17.74 576.96,22.42 128.3,3.12 257.29,4.36 386.25,4.36 261.9,0 523.73,-5.13 779.72,-10.15 678.6,-13.32 1420.12,-26.85 2137.2,-39.95 634.8,-11.58 1288.7,-23.53 1901.2,-35.35 v -19.63" /><path
         id="path22"
         style="fill:#b2dde6;fill-opacity:1;fill-rule:nonzero;stroke:none"
         d="M 12000,7035.06 C 7953.79,7046.48 3704.96,7076.57 0,7120.04 v 19.63 c 3704.89,-43.47 7953.78,-73.57 12000,-84.99 v -19.62" /><path
         id="path24"
         style="fill:#b2dde6;fill-opacity:1;fill-rule:nonzero;stroke:none"
         d="M 12000,7710.04 C 7953.95,7721.46 3705.12,7751.55 0,7795.02 v 19.63 c 3705.05,-43.47 7953.94,-73.58 12000,-84.99 v -19.62" /><path
         id="path26"
         style="fill:#b2dde6;fill-opacity:1;fill-rule:nonzero;stroke:none"
         d="m 10629.6,6621.58 c -641.17,0 -1301.41,5.63 -1943.91,11.95 l -2068.72,20.33 c -1201.31,11.8 -2443.42,24.01 -3663.53,56.86 -81.57,2.2 -164.17,4.49 -247.63,6.8 -512.72,14.2 -1063.1,29.45 -1605.78,29.45 -375.358,0 -746.964,-7.29 -1100.03,-27.27 v 19.75 c 353.406,19.88 725.012,27.14 1100.06,27.14 543.73,0 1094.64,-15.26 1608,-29.48 83.44,-2.32 166.03,-4.6 247.56,-6.79 1219.42,-32.84 2461.18,-45.04 3662.06,-56.85 l 2068.81,-20.33 c 642.15,-6.31 1302.35,-11.94 1943.01,-11.94 472.4,0 934.1,3.06 1370.5,11.16 v -19.64 c -436.4,-8.09 -898.3,-11.14 -1370.4,-11.14" /><path
         id="path28"
         style="fill:#b2dde6;fill-opacity:1;fill-rule:nonzero;stroke:none"
         d="m 12000,6291.25 c -666.8,12.51 -1379.7,25.17 -2071.23,37.45 -759,13.47 -1543.8,27.41 -2265.04,41.11 -374.96,7.13 -762.7,14.49 -1144.21,19.08 -564.61,6.79 -1150.14,7.77 -1725.52,7.77 -115.55,0 -230.58,-0.04 -345.07,-0.08 -114.55,-0.04 -229.64,-0.07 -344.71,-0.07 -1370.32,0 -2773.03,5.34 -4104.22,79.88 v 19.75 c 1330.27,-74.65 2733.67,-80.01 4104.32,-80.01 115.17,0 229.94,0.04 344.58,0.08 113.33,0.03 227.37,0.07 341.74,0.07 576.79,0 1163.64,-0.97 1729.87,-7.77 381.77,-4.59 769.67,-11.97 1144.76,-19.1 721.2,-13.7 1505.99,-27.63 2264.95,-41.1 690.98,-12.27 1403.38,-24.92 2069.78,-37.43 v -19.63" /><path
         id="path30"
         style="fill:#b2dde6;fill-opacity:1;fill-rule:nonzero;stroke:none"
         d="m 10507.2,6058.04 c -290.9,0 -570.83,3.38 -819.56,6.38 C 6508.36,6102.83 3202.89,6104.64 0,6105.73 v 19.62 c 3203.13,-1.09 6508.87,-2.9 9688.6,-41.31 248.43,-3 528.2,-6.38 818.6,-6.38 500.2,0 1032.4,10.01 1492.8,49.21 v -19.91 c -461.7,-38.96 -993.4,-48.92 -1492.8,-48.92" /><path
         id="path32"
         style="fill:#b2dde6;fill-opacity:1;fill-rule:nonzero;stroke:none"
         d="m 10507.2,3321.68 c -290.9,0 -570.83,3.38 -819.56,6.39 -3179.28,38.4 -6484.75,40.21 -9687.64,41.3 v 19.62 c 3203.13,-1.09 6508.87,-2.89 9688.6,-41.31 248.43,-3 528.1,-6.38 818.5,-6.38 500.2,0 1032.5,10.01 1492.9,49.21 v -19.91 c -461.7,-38.96 -993.4,-48.92 -1492.8,-48.92" /><path
         id="path34"
         style="fill:#b2dde6;fill-opacity:1;fill-rule:nonzero;stroke:none"
         d="m 12000,5571.07 c -984.7,48.65 -2021.09,59.82 -3056.31,59.82 -443.26,0 -886.09,-2.05 -1324.83,-4.07 -423.55,-1.96 -857.86,-3.96 -1282.87,-3.96 -146.55,0 -291.98,0.24 -435.51,0.8 -573.49,2.24 -1172.19,9.74 -1751.18,16.99 -721.12,9.02 -1454.78,18.21 -2183.08,18.21 -664.2,0 -1323.822,-7.63 -1966.22,-29.98 v 19.67 c 642.434,22.3 1302.45,29.93 1966.28,29.93 728.87,0 1462.49,-9.18 2184.04,-18.22 578.82,-7.24 1177.34,-14.74 1750.48,-16.98 146.41,-0.57 293.06,-0.82 440.44,-0.82 415.76,0 837.49,1.95 1277.24,3.98 438.8,2.03 882,4.07 1325.35,4.07 1034.86,0 2070.97,-11.15 3056.17,-59.71 v -19.73" /><path
         id="path36"
         style="fill:#b2dde6;fill-opacity:1;fill-rule:nonzero;stroke:none"
         d="m 12000,5186.39 c -1715.7,8.98 -3445.05,24.69 -4888.51,44.45 -481.28,6.59 -967.75,13.89 -1438.19,20.93 l -1189.34,17.82 c -507.03,7.6 -1031.07,15.45 -1546.46,23.65 -581.67,9.25 -1214.1,19.1 -1837.91,28.82 -373.887,5.83 -744.692,11.61 -1099.59,17.18 v 19.63 c 355.289,-5.58 726.516,-11.36 1100.86,-17.2 623.82,-9.72 1256.26,-19.58 1837.93,-28.82 515.36,-8.2 1039.38,-16.05 1546.15,-23.64 l 1189.59,-17.82 c 470.41,-7.06 956.84,-14.34 1438.07,-20.93 1443.05,-19.76 3172.1,-35.47 4887.4,-44.45 v -19.62" /><path
         id="path38"
         style="fill:#b2dde6;fill-opacity:1;fill-rule:nonzero;stroke:none"
         d="m 8818.86,4810.14 c -1205.77,-0.01 -2440.96,15.2 -3601.86,62.99 -194.02,7.99 -391.08,17.02 -581.64,25.76 -269.43,12.35 -548.02,25.13 -822.37,35.14 -533.11,19.45 -1097.63,29.08 -1665.6,29.08 -729.28,0 -1464.468,-15.88 -2147.39,-47.28 v 19.71 c 683.012,31.34 1418.23,47.19 2147.39,47.19 569.05,0 1134.45,-9.65 1668.57,-29.14 274.72,-10.02 553.51,-22.8 823.12,-35.16 190.47,-8.74 387.43,-17.77 581.27,-25.75 1159.37,-47.72 2393.8,-62.92 3598.46,-62.92 1112.96,0 2200.39,12.96 3181.19,25.21 v -19.63 c -980.6,-12.25 -2068.34,-25.2 -3181.14,-25.2" /><path
         id="path40"
         style="fill:#b2dde6;fill-opacity:1;fill-rule:nonzero;stroke:none"
         d="m 12000,4469.2 c -1201,12.59 -2495.68,14.95 -3725.22,14.95 -382.64,0 -758.89,-0.23 -1124.18,-0.45 l -2027.72,-1.23 C 4268.5,4481.94 3377.01,4481.42 2485.51,4480.9 1646.68,4480.41 807.902,4479.91 0,4479.42 v 19.63 c 807.855,0.49 1646.68,0.98 2485.46,1.47 891.5,0.52 1783,1.04 2637.37,1.57 l 2027.7,1.23 c 365.64,0.22 742.45,0.45 1125.47,0.45 1229.16,0 2523.2,-2.37 3724,-14.95 v -19.62" /><path
         id="path42"
         style="fill:#b2dde6;fill-opacity:1;fill-rule:nonzero;stroke:none"
         d="m 10629.6,1734.24 c -641.17,0 -1301.41,5.62 -1943.91,11.94 l -2068.72,20.33 c -1201.31,11.81 -2443.42,24.02 -3663.53,56.87 -81.57,2.2 -164.17,4.48 -247.63,6.8 -512.72,14.2 -1063.17,29.45 -1605.85,29.45 -375.358,0 -746.894,-7.29 -1099.96,-27.27 v 19.75 c 353.406,19.88 724.992,27.14 1100.04,27.14 543.73,0 1094.66,-15.26 1608.02,-29.48 83.44,-2.32 166.03,-4.6 247.56,-6.8 1219.42,-32.83 2461.18,-45.03 3662.06,-56.84 l 2068.81,-20.33 c 642.15,-6.31 1302.35,-11.94 1943.01,-11.94 472.4,0 934.1,3.06 1370.5,11.16 v -19.64 c -436.4,-8.09 -898.3,-11.14 -1370.4,-11.14" /><path
         id="path44"
         style="fill:#b2dde6;fill-opacity:1;fill-rule:nonzero;stroke:none"
         d="m 12000,1403.9 c -666.8,12.52 -1379.7,25.18 -2071.23,37.46 -759,13.47 -1543.8,27.4 -2265.04,41.11 -374.96,7.12 -762.7,14.49 -1144.21,19.07 -564.56,6.8 -1149.98,7.78 -1725.33,7.78 -115.59,0 -230.73,-0.04 -345.26,-0.08 -115.11,-0.04 -230.57,-0.08 -346.2,-0.08 -1369.79,0 -2772.09,5.38 -4102.73,79.89 v 19.75 c 1330.63,-74.67 2734.36,-80.02 4105.37,-80.02 114.79,0 229.26,0.04 343.53,0.08 114.25,0.04 229.16,0.08 344.46,0.08 575.89,0 1161.83,-0.97 1727.15,-7.78 381.77,-4.59 769.67,-11.96 1144.76,-19.09 721.2,-13.7 1505.99,-27.64 2264.95,-41.1 690.98,-12.27 1403.38,-24.92 2069.78,-37.43 v -19.64" /><path
         id="path46"
         style="fill:#b2dde6;fill-opacity:1;fill-rule:nonzero;stroke:none"
         d="m 10507.2,1170.69 c -290.9,0 -570.83,3.38 -819.56,6.39 C 6508.36,1215.49 3202.89,1217.3 0,1218.39 v 19.63 c 3203.13,-1.1 6508.87,-2.91 9688.6,-41.32 248.47,-3 528.2,-6.38 818.7,-6.38 500.1,0 1032.3,10.01 1492.7,49.21 v -19.91 c -461.7,-38.96 -993.4,-48.93 -1492.8,-48.93" /><path
         id="path48"
         style="fill:#b2dde6;fill-opacity:1;fill-rule:nonzero;stroke:none"
         d="m 12000,683.742 c -984.7,48.637 -2020.9,59.809 -3056.11,59.809 -443.27,0 -886.29,-2.051 -1325.03,-4.082 -423.48,-1.949 -857.75,-3.949 -1282.69,-3.949 -146.63,0 -292.09,0.242 -435.69,0.8 -573.49,2.25 -1172.19,9.739 -1751.18,16.981 C 3428.18,762.328 2694.57,771.52 1966.26,771.52 1302.07,771.52 642.398,763.879 0,741.531 v 19.68 c 642.434,22.301 1302.36,29.93 1966.18,29.93 728.88,0 1462.59,-9.192 2184.14,-18.219 578.82,-7.242 1177.34,-14.731 1750.48,-16.981 146.41,-0.582 293.11,-0.82 440.49,-0.82 415.76,0 837.44,1.949 1277.19,3.969 438.8,2.031 882.17,4.082 1325.52,4.082 1034.86,0 2070.8,-11.152 3056,-59.723 v -19.707" /><path
         id="path50"
         style="fill:#b2dde6;fill-opacity:1;fill-rule:nonzero;stroke:none"
         d="m 12000,299.039 c -1715.7,8.992 -3445.05,24.703 -4888.51,44.473 -481.28,6.578 -967.75,13.867 -1438.19,20.918 L 4483.96,382.25 C 3976.93,389.84 3452.89,397.691 2937.5,405.891 2355.83,415.152 1723.4,425 1099.59,434.719 725.703,440.551 354.898,446.332 0,451.898 v 19.622 c 355.289,-5.571 726.516,-11.348 1100.86,-17.188 623.82,-9.723 1256.26,-19.57 1837.93,-28.82 515.36,-8.203 1039.38,-16.063 1546.15,-23.641 l 1189.59,-17.832 c 470.41,-7.051 956.84,-14.328 1438.07,-20.93 1443.05,-19.75 3172.1,-35.457 4887.4,-44.449 v -19.621" /><path
         id="path52"
         style="fill:#b2dde6;fill-opacity:1;fill-rule:nonzero;stroke:none"
         d="M 5353.89,0 H 4888.86 C 4803.65,3.83203 4718.88,7.71875 4635.36,11.5508 4365.93,23.9023 4087.34,36.6719 3812.99,46.6797 3279.88,66.1289 2715.32,75.7695 2147.35,75.7695 1418.08,75.7695 682.922,59.8906 0,28.4922 v 19.707 c 682.934,31.3321 1418.24,47.1914 2147.32,47.1914 569.14,0 1134.44,-9.6523 1668.64,-29.1406 C 4090.68,56.2305 4369.47,43.4492 4639.08,31.0781 4829.55,22.3516 5026.51,13.3203 5220.35,5.33984 5264.82,3.51172 5309.21,1.74219 5353.89,0" /><path
         id="path54"
         style="fill:#b2dde6;fill-opacity:1;fill-rule:nonzero;stroke:none"
         d="m 10415.2,3991.5 c -151.8,0 -297.3,24.29 -437.97,47.78 -92.12,15.39 -187.37,31.29 -282.99,40.09 -83.06,7.65 -168.16,10.11 -253.43,10.11 -78.39,0 -156.91,-2.08 -234.2,-4.13 l -12.79,-0.34 c -815.95,-21.54 -1639.99,-28.19 -2459.25,-28.19 -672.48,0 -1341.68,4.48 -2000.9,8.9 -793.89,5.32 -1638.87,10.73 -2456.05,15.96 -756.27,4.84 -1536.409,9.83 -2277.62,14.76 v 19.63 c 741.375,-4.94 1521.68,-9.93 2278.15,-14.77 817.17,-5.23 1662.17,-10.64 2456.07,-15.96 659,-4.42 1328.26,-8.9 2000.46,-8.9 818.71,0 1641.86,6.65 2456.98,28.16 l 12.78,0.35 c 77.98,2.06 157.22,4.16 236.56,4.16 87.26,0 174.64,-2.54 260.63,-10.45 98.43,-9.07 195.05,-25.2 288.48,-40.8 143.89,-24.03 279.89,-46.74 424.89,-46.74 1.3,0 2.6,0.01 3.9,0.01 154,0.42 303.6,27.71 448.4,54.11 70.1,12.79 142.7,26.02 215.6,36.24 128.4,17.97 299.9,26.69 475.1,26.69 153.1,0 309.1,-6.64 442,-19.56 v -19.93 c -131.8,13.24 -288,20.05 -441.2,20.05 -171.5,0 -339.2,-8.53 -464.9,-26.13 -71.4,-9.99 -143.2,-23.09 -212.7,-35.76 -148,-26.98 -301,-54.89 -462.1,-55.33 -1.3,-0.01 -2.6,-0.01 -3.9,-0.01" /><path
         id="path56"
         style="fill:#b2dde6;fill-opacity:1;fill-rule:nonzero;stroke:none"
         d="m 7869.89,3665.98 c -157.7,0 -307.27,28.18 -452.01,55.46 -54.77,10.31 -111.39,20.98 -167.28,29.88 -258.41,41.13 -534.61,49.62 -801.7,57.82 -350.29,10.76 -708.17,21.75 -1065.95,21.75 -210.29,0 -420.5,-3.8 -629.25,-13.66 -155.9,-7.37 -313.83,-18.29 -466.56,-28.84 -151.01,-10.45 -307.15,-21.24 -461.7,-28.64 -341.23,-16.33 -689.19,-16.86 -1025.7,-17.37 -466.36,-0.69 -969.84,-1.39 -1473.32,-2.09 C 875.395,3739.66 424.332,3739.03 0,3738.41 v 19.62 c 424.313,0.63 875.309,1.25 1326.3,1.88 503.48,0.7 1006.96,1.4 1473.32,2.1 335.58,0.5 682.59,1.03 1021.93,17.27 153.7,7.36 309.42,18.12 460.01,28.53 153.16,10.59 311.53,21.54 468.3,28.95 210.17,9.93 421.72,13.75 633.07,13.75 358.94,0 717.43,-11.01 1068.47,-21.79 269.58,-8.28 548.34,-16.85 811.54,-58.74 56.91,-9.05 114.04,-19.82 169.29,-30.24 141.34,-26.62 287.61,-54.14 437.79,-54.14 2.39,0 4.78,0.01 7.18,0.02 141.17,0.83 278.53,26.31 411.36,50.95 35.13,6.53 71.46,13.26 107.34,19.45 342.97,59.16 719.28,77.46 1106.58,77.46 318.7,0 644.82,-12.39 966.12,-24.58 318.5,-12.1 643.1,-24.43 958.4,-24.43 195.8,0 388,4.75 573,17.26 v -19.8 c -185.4,-12.38 -377.6,-17.09 -573,-17.09 -316.7,0 -642.1,12.36 -961.5,24.49 -320.3,12.16 -645.51,24.51 -962.78,24.51 -383.66,0 -755.69,-18.05 -1093.56,-76.33 -35.43,-6.11 -71.53,-12.81 -106.44,-19.29 -136.08,-25.24 -276.81,-51.34 -425.03,-52.22 -2.59,-0.01 -5.21,-0.02 -7.8,-0.02" /><path
         id="path58"
         style="fill:#b2dde6;fill-opacity:1;fill-rule:nonzero;stroke:none"
         d="m 7071.2,2506.26 c -405.8,0 -809.64,3.35 -1207.57,6.65 l -880.29,7.3 c -823.91,6.83 -1669.77,13.66 -2515.63,20.49 -829.46,6.7 -1658.96,13.39 -2467.71,20.09 v 19.63 c 808.984,-6.71 1638.67,-13.4 2468.37,-20.1 845.87,-6.83 1691.73,-13.66 2515.64,-20.49 l 880.3,-7.3 c 397.6,-3.3 801.22,-6.65 1206.63,-6.65 512.39,0 1027.66,5.35 1537.5,22.88 209.59,7.21 422.69,16.63 628.78,25.75 439.04,19.41 890.78,39.37 1340.08,39.37 86,0 171.7,-0.73 257.4,-2.33 328,-6.14 814,-24.74 1165.3,-44.17 v -19.74 c -350.7,19.47 -838.3,38.16 -1166.9,44.31 -85,1.6 -170.3,2.32 -255.7,2.32 -447.8,0 -898.43,-19.93 -1336.59,-39.31 -206.29,-9.12 -419.59,-18.55 -629.58,-25.77 -510.85,-17.58 -1026.99,-22.93 -1540.03,-22.93" /></g></g></svg>