<?xml version="1.0" encoding="UTF-8" standalone="no"?>
<!-- Created with Inkscape (http://www.inkscape.org/) -->

<svg
   xmlns:dc="http://purl.org/dc/elements/1.1/"
   xmlns:cc="http://creativecommons.org/ns#"
   xmlns:rdf="http://www.w3.org/1999/02/22-rdf-syntax-ns#"
   xmlns:svg="http://www.w3.org/2000/svg"
   xmlns="http://www.w3.org/2000/svg"
   xmlns:sodipodi="http://sodipodi.sourceforge.net/DTD/sodipodi-0.dtd"
   xmlns:inkscape="http://www.inkscape.org/namespaces/inkscape"
   width="213.25"
   height="213.25"
   id="svg4758"
   version="1.1"
   inkscape:version="0.48.0 r9654"
   sodipodi:docname="New document 23">
  <defs
     id="defs4760" />
  <sodipodi:namedview
     id="base"
     pagecolor="#ffffff"
     bordercolor="#666666"
     borderopacity="1.0"
     inkscape:pageopacity="0.0"
     inkscape:pageshadow="2"
     inkscape:zoom="0.35"
     inkscape:cx="115.91071"
     inkscape:cy="86.624997"
     inkscape:document-units="px"
     inkscape:current-layer="layer1"
     showgrid="false"
     fit-margin-top="0"
     fit-margin-left="0"
     fit-margin-right="0"
     fit-margin-bottom="0"
     inkscape:window-width="515"
     inkscape:window-height="436"
     inkscape:window-x="1"
     inkscape:window-y="79"
     inkscape:window-maximized="0" />
  <metadata
     id="metadata4763">
    <rdf:RDF>
      <cc:Work
         rdf:about="">
        <dc:format>image/svg+xml</dc:format>
        <dc:type
           rdf:resource="http://purl.org/dc/dcmitype/StillImage" />
        <dc:title></dc:title>
      </cc:Work>
    </rdf:RDF>
  </metadata>
  <g
     inkscape:label="Layer 1"
     inkscape:groupmode="layer"
     id="layer1"
     transform="translate(-259.08929,-405.73718)">
    <path
       inkscape:connector-curvature="0"
       style="color:#000000;fill:#008080;fill-opacity:1;fill-rule:nonzero;stroke:none;stroke-width:0.1863264;marker:none;visibility:visible;display:inline;overflow:visible;enable-background:accumulate"
       d="m 365.71429,405.73718 c -58.88709,0 -106.625,47.73791 -106.625,106.625 0,58.88709 47.73791,106.625 106.625,106.625 58.88709,0 106.625,-47.73791 106.625,-106.625 0,-58.88709 -47.73791,-106.625 -106.625,-106.625 z m 79.09375,59.875 c 3.08481,0 4.2687,2.91539 4.5625,4.53125 0.29379,1.61585 -5.73322,4.85884 -13.8125,8.53125 -8.07928,3.6724 -25.26191,7.64988 -29.375,8.53125 -4.11308,0.88138 -8.07144,12.34035 -11.15625,14.25 -2.58564,1.60063 -7.43162,1.926 -9,2 -0.77382,7.91432 -3.63409,21.90722 -13.59375,37.9375 l -0.3125,0 c -3.55533,5.49094 -16.81498,9.59375 -32.625,9.59375 -16.6434,0 -30.4173,-4.53943 -33.0625,-10.46875 l -0.15625,0 c -15.42407,-24.82542 -12.34375,-42.75 -12.34375,-42.75 l 0.0625,0 c -1.7e-4,0.0209 0,0.0416 0,0.0625 0,10.45642 20.65854,18.9375 46.125,18.9375 25.46646,0 46.125,-8.48108 46.125,-18.9375 0,-2.28734 -1.00169,-4.46967 -2.8125,-6.5 1.36239,-0.80474 23.07685,-13.62178 28.34375,-16.46875 5.43515,-2.93791 29.94642,-9.25 33.03125,-9.25 z m -3.53125,1.84375 c -1.25694,0.002 -2.84516,0.18414 -4.53125,0.53125 -3.85391,0.79337 -6.8213,2.2027 -6.625,3.15625 0.19631,0.95354 3.48984,1.10589 7.34375,0.3125 3.85391,-0.79337 6.82129,-2.23396 6.625,-3.1875 -0.11042,-0.53637 -1.19645,-0.8145 -2.8125,-0.8125 z m -101.78125,13.28125 c 23.94858,0 43.375,7.24895 43.375,16.1875 0,6.25577 -9.52049,11.64753 -23.4375,14.34375 -0.82292,-2.47569 -9.22994,-4.4375 -19.46875,-4.4375 -10.44695,0 -18.97703,2.04635 -19.5,4.59375 -14.38811,-2.6358 -24.3125,-8.11503 -24.3125,-14.5 0,-8.93855 19.39515,-16.1875 43.34375,-16.1875 z m -40.0625,69.5625 c 0,0 10.79557,-0.84804 20.53125,13.9375 0,0 -11.6684,2.88042 -20.53125,-13.9375 z m 79.5,0.34375 c 0.3145,-0.006 0.46875,0 0.46875,0 -8.86285,16.81792 -20.53125,13.9375 -20.53125,13.9375 8.51873,-12.93735 17.86101,-13.89809 20.0625,-13.9375 z m -24.3125,4.25 c 0,0 4.65443,6.79544 -8.59375,15.09375 0,0 -7.23757,-7.06836 8.59375,-15.09375 z m -27.53125,0.375 c 0,0 9.45162,1.44812 8.8125,14.96875 0,0 -11.3716,-0.0277 -8.8125,-14.96875 z"
       id="path4525" />
  </g>
</svg>
